<?xml version="1.0" encoding="UTF-8" standalone="no"?>
<!DOCTYPE svg PUBLIC "-//W3C//DTD SVG 1.1//EN"
 "http://www.w3.org/Graphics/SVG/1.1/DTD/svg11.dtd">
<!-- Generated by graphviz version 2.40.1 (0)
 -->
<!-- Title: snakemake_dag Pages: 1 -->
<svg width="539pt" height="548pt"
 viewBox="0.00 0.00 539.00 548.00" xmlns="http://www.w3.org/2000/svg" xmlns:xlink="http://www.w3.org/1999/xlink">
<g id="graph0" class="graph" transform="scale(1 1) rotate(0) translate(4 544)">
<title>snakemake_dag</title>
<polygon fill="#ffffff" stroke="transparent" points="-4,4 -4,-544 535,-544 535,4 -4,4"/>
<!-- 0 -->
<g id="node1" class="node">
<title>0</title>
<path fill="none" stroke="#56a2d8" stroke-width="2" d="M355,-36C355,-36 325,-36 325,-36 319,-36 313,-30 313,-24 313,-24 313,-12 313,-12 313,-6 319,0 325,0 325,0 355,0 355,0 361,0 367,-6 367,-12 367,-12 367,-24 367,-24 367,-30 361,-36 355,-36"/>
<text text-anchor="middle" x="340" y="-15.5" font-family="sans" font-size="10.00" fill="#000000">targets</text>
</g>
<!-- 1 -->
<g id="node2" class="node">
<title>1</title>
<path fill="none" stroke="#78d856" stroke-width="2" d="M519,-324C519,-324 417,-324 417,-324 411,-324 405,-318 405,-312 405,-312 405,-300 405,-300 405,-294 411,-288 417,-288 417,-288 519,-288 519,-288 525,-288 531,-294 531,-300 531,-300 531,-312 531,-312 531,-318 525,-324 519,-324"/>
<text text-anchor="middle" x="468" y="-303.5" font-family="sans" font-size="10.00" fill="#000000">generate_final_targets</text>
</g>
<!-- 1&#45;&gt;0 -->
<g id="edge3" class="edge">
<title>1&#45;&gt;0</title>
<path fill="none" stroke="#c0c0c0" stroke-width="2" d="M464.401,-287.9548C455.7556,-247.2725 431.2629,-146.172 388,-72 382.0969,-61.8795 374.1114,-51.9553 366.3489,-43.4316"/>
<polygon fill="#c0c0c0" stroke="#c0c0c0" stroke-width="2" points="368.7636,-40.8912 359.3489,-36.0319 363.6784,-45.7017 368.7636,-40.8912"/>
</g>
<!-- 2 -->
<g id="node3" class="node">
<title>2</title>
<path fill="none" stroke="#56d87b" stroke-width="2" d="M268,-540C268,-540 170,-540 170,-540 164,-540 158,-534 158,-528 158,-528 158,-516 158,-516 158,-510 164,-504 170,-504 170,-504 268,-504 268,-504 274,-504 280,-510 280,-516 280,-516 280,-528 280,-528 280,-534 274,-540 268,-540"/>
<text text-anchor="middle" x="219" y="-519.5" font-family="sans" font-size="10.00" fill="#000000">generate_py_barcode</text>
</g>
<!-- 2&#45;&gt;1 -->
<g id="edge4" class="edge">
<title>2&#45;&gt;1</title>
<path fill="none" stroke="#c0c0c0" stroke-width="2" d="M280.2573,-515.1122C316.0823,-508.3073 360.1763,-494.7982 391,-468 431.9602,-432.389 452.8385,-370.1749 461.9933,-334.0897"/>
<polygon fill="#c0c0c0" stroke="#c0c0c0" stroke-width="2" points="465.4319,-334.7596 464.3696,-324.2181 458.6263,-333.1212 465.4319,-334.7596"/>
</g>
<!-- 3 -->
<g id="node4" class="node">
<title>3</title>
<path fill="none" stroke="#56d8c9" stroke-width="2" d="M366.5,-108C366.5,-108 313.5,-108 313.5,-108 307.5,-108 301.5,-102 301.5,-96 301.5,-96 301.5,-84 301.5,-84 301.5,-78 307.5,-72 313.5,-72 313.5,-72 366.5,-72 366.5,-72 372.5,-72 378.5,-78 378.5,-84 378.5,-84 378.5,-96 378.5,-96 378.5,-102 372.5,-108 366.5,-108"/>
<text text-anchor="middle" x="340" y="-87.5" font-family="sans" font-size="10.00" fill="#000000">merge_gene</text>
</g>
<!-- 2&#45;&gt;3 -->
<g id="edge6" class="edge">
<title>2&#45;&gt;3</title>
<path fill="none" stroke="#c0c0c0" stroke-width="2" d="M280.1642,-505.8977C301.9998,-497.5919 325.3012,-485.4292 342,-468 371.6915,-437.0098 377,-420.9182 377,-378 377,-378 377,-378 377,-234 377,-192.4385 362.3628,-146.1923 351.501,-117.5961"/>
<polygon fill="#c0c0c0" stroke="#c0c0c0" stroke-width="2" points="354.7492,-116.2919 347.8467,-108.254 348.2302,-118.8419 354.7492,-116.2919"/>
</g>
<!-- 4 -->
<g id="node5" class="node">
<title>4</title>
<path fill="none" stroke="#d8c356" stroke-width="2" d="M331.5,-180C331.5,-180 282.5,-180 282.5,-180 276.5,-180 270.5,-174 270.5,-168 270.5,-168 270.5,-156 270.5,-156 270.5,-150 276.5,-144 282.5,-144 282.5,-144 331.5,-144 331.5,-144 337.5,-144 343.5,-150 343.5,-156 343.5,-156 343.5,-168 343.5,-168 343.5,-174 337.5,-180 331.5,-180"/>
<text text-anchor="middle" x="307" y="-159.5" font-family="sans" font-size="10.00" fill="#000000">count_gene</text>
</g>
<!-- 2&#45;&gt;4 -->
<g id="edge8" class="edge">
<title>2&#45;&gt;4</title>
<path fill="none" stroke="#c0c0c0" stroke-width="2" d="M272.508,-503.9967C290.0404,-495.6199 308.063,-483.9017 320,-468 344.5431,-435.3053 339,-418.8816 339,-378 339,-378 339,-378 339,-306 339,-264.9442 326.4511,-218.8385 317.0701,-190.1076"/>
<polygon fill="#c0c0c0" stroke="#c0c0c0" stroke-width="2" points="320.2932,-188.7116 313.7864,-180.3503 313.6589,-190.9443 320.2932,-188.7116"/>
</g>
<!-- 11 -->
<g id="node12" class="node">
<title>11</title>
<path fill="none" stroke="#d87d56" stroke-width="2" d="M119.5,-468C119.5,-468 78.5,-468 78.5,-468 72.5,-468 66.5,-462 66.5,-456 66.5,-456 66.5,-444 66.5,-444 66.5,-438 72.5,-432 78.5,-432 78.5,-432 119.5,-432 119.5,-432 125.5,-432 131.5,-438 131.5,-444 131.5,-444 131.5,-456 131.5,-456 131.5,-462 125.5,-468 119.5,-468"/>
<text text-anchor="middle" x="99" y="-447.5" font-family="sans" font-size="10.00" fill="#000000">barcoding</text>
</g>
<!-- 2&#45;&gt;11 -->
<g id="edge16" class="edge">
<title>2&#45;&gt;11</title>
<path fill="none" stroke="#c0c0c0" stroke-width="2" d="M188.7189,-503.8314C173.3702,-494.6221 154.5502,-483.3301 138.1177,-473.4706"/>
<polygon fill="#c0c0c0" stroke="#c0c0c0" stroke-width="2" points="139.6471,-470.3066 129.2714,-468.1628 136.0456,-476.3091 139.6471,-470.3066"/>
</g>
<!-- 12 -->
<g id="node13" class="node">
<title>12</title>
<path fill="none" stroke="#56d8a2" stroke-width="2" d="M169.5,-108C169.5,-108 116.5,-108 116.5,-108 110.5,-108 104.5,-102 104.5,-96 104.5,-96 104.5,-84 104.5,-84 104.5,-78 110.5,-72 116.5,-72 116.5,-72 169.5,-72 169.5,-72 175.5,-72 181.5,-78 181.5,-84 181.5,-84 181.5,-96 181.5,-96 181.5,-102 175.5,-108 169.5,-108"/>
<text text-anchor="middle" x="143" y="-87.5" font-family="sans" font-size="10.00" fill="#000000">merge_exon</text>
</g>
<!-- 2&#45;&gt;12 -->
<g id="edge18" class="edge">
<title>2&#45;&gt;12</title>
<path fill="none" stroke="#c0c0c0" stroke-width="2" d="M157.6076,-510.07C111.4147,-500.0012 53.0869,-484.6042 35,-468 3.384,-438.9758 0,-420.9182 0,-378 0,-378 0,-378 0,-234 0,-178.6911 53.7716,-137.0664 95.3683,-113.1409"/>
<polygon fill="#c0c0c0" stroke="#c0c0c0" stroke-width="2" points="97.2711,-116.0873 104.3021,-108.1617 93.8632,-109.9729 97.2711,-116.0873"/>
</g>
<!-- 13 -->
<g id="node14" class="node">
<title>13</title>
<path fill="none" stroke="#d8a456" stroke-width="2" d="M167.5,-180C167.5,-180 118.5,-180 118.5,-180 112.5,-180 106.5,-174 106.5,-168 106.5,-168 106.5,-156 106.5,-156 106.5,-150 112.5,-144 118.5,-144 118.5,-144 167.5,-144 167.5,-144 173.5,-144 179.5,-150 179.5,-156 179.5,-156 179.5,-168 179.5,-168 179.5,-174 173.5,-180 167.5,-180"/>
<text text-anchor="middle" x="143" y="-159.5" font-family="sans" font-size="10.00" fill="#000000">count_exon</text>
</g>
<!-- 2&#45;&gt;13 -->
<g id="edge20" class="edge">
<title>2&#45;&gt;13</title>
<path fill="none" stroke="#c0c0c0" stroke-width="2" d="M157.8679,-508.3235C117.9711,-498.1825 70.8168,-483.4842 57,-468 29.7814,-437.4966 38,-418.8816 38,-378 38,-378 38,-378 38,-306 38,-256.4381 79.1108,-212.5199 109.8843,-186.5876"/>
<polygon fill="#c0c0c0" stroke="#c0c0c0" stroke-width="2" points="112.3233,-189.1145 117.8499,-180.0752 107.8926,-183.6951 112.3233,-189.1145"/>
</g>
<!-- 3&#45;&gt;0 -->
<g id="edge1" class="edge">
<title>3&#45;&gt;0</title>
<path fill="none" stroke="#c0c0c0" stroke-width="2" d="M340,-71.8314C340,-64.131 340,-54.9743 340,-46.4166"/>
<polygon fill="#c0c0c0" stroke="#c0c0c0" stroke-width="2" points="343.5001,-46.4132 340,-36.4133 336.5001,-46.4133 343.5001,-46.4132"/>
</g>
<!-- 4&#45;&gt;3 -->
<g id="edge5" class="edge">
<title>4&#45;&gt;3</title>
<path fill="none" stroke="#c0c0c0" stroke-width="2" d="M315.3273,-143.8314C318.973,-135.8771 323.3309,-126.369 327.3627,-117.5723"/>
<polygon fill="#c0c0c0" stroke="#c0c0c0" stroke-width="2" points="330.5757,-118.9622 331.5606,-108.4133 324.2123,-116.0456 330.5757,-118.9622"/>
</g>
<!-- 5 -->
<g id="node6" class="node">
<title>5</title>
<path fill="none" stroke="#d85656" stroke-width="2" d="M260.5,-252C260.5,-252 183.5,-252 183.5,-252 177.5,-252 171.5,-246 171.5,-240 171.5,-240 171.5,-228 171.5,-228 171.5,-222 177.5,-216 183.5,-216 183.5,-216 260.5,-216 260.5,-216 266.5,-216 272.5,-222 272.5,-228 272.5,-228 272.5,-240 272.5,-240 272.5,-246 266.5,-252 260.5,-252"/>
<text text-anchor="middle" x="222" y="-231.5" font-family="sans" font-size="10.00" fill="#000000">bam_filter_dedup</text>
</g>
<!-- 5&#45;&gt;4 -->
<g id="edge9" class="edge">
<title>5&#45;&gt;4</title>
<path fill="none" stroke="#c0c0c0" stroke-width="2" d="M243.4491,-215.8314C253.8178,-207.0485 266.4229,-196.3712 277.6646,-186.8489"/>
<polygon fill="#c0c0c0" stroke="#c0c0c0" stroke-width="2" points="280.1895,-189.297 285.5578,-180.1628 275.6651,-183.9556 280.1895,-189.297"/>
</g>
<!-- 5&#45;&gt;13 -->
<g id="edge21" class="edge">
<title>5&#45;&gt;13</title>
<path fill="none" stroke="#c0c0c0" stroke-width="2" d="M202.065,-215.8314C192.5217,-207.1337 180.9401,-196.5783 170.5694,-187.1265"/>
<polygon fill="#c0c0c0" stroke="#c0c0c0" stroke-width="2" points="172.6772,-184.3121 162.9287,-180.1628 167.962,-189.4857 172.6772,-184.3121"/>
</g>
<!-- 6 -->
<g id="node7" class="node">
<title>6</title>
<path fill="none" stroke="#56c9d8" stroke-width="2" d="M203,-324C203,-324 173,-324 173,-324 167,-324 161,-318 161,-312 161,-312 161,-300 161,-300 161,-294 167,-288 173,-288 173,-288 203,-288 203,-288 209,-288 215,-294 215,-300 215,-300 215,-312 215,-312 215,-318 209,-324 203,-324"/>
<text text-anchor="middle" x="188" y="-303.5" font-family="sans" font-size="10.00" fill="#000000">star</text>
</g>
<!-- 6&#45;&gt;5 -->
<g id="edge10" class="edge">
<title>6&#45;&gt;5</title>
<path fill="none" stroke="#c0c0c0" stroke-width="2" d="M196.5796,-287.8314C200.3358,-279.8771 204.8257,-270.369 208.9798,-261.5723"/>
<polygon fill="#c0c0c0" stroke="#c0c0c0" stroke-width="2" points="212.1996,-262.9503 213.3048,-252.4133 205.8699,-259.9612 212.1996,-262.9503"/>
</g>
<!-- 7 -->
<g id="node8" class="node">
<title>7</title>
<path fill="none" stroke="#59d856" stroke-width="2" d="M222,-396C222,-396 154,-396 154,-396 148,-396 142,-390 142,-384 142,-384 142,-372 142,-372 142,-366 148,-360 154,-360 154,-360 222,-360 222,-360 228,-360 234,-366 234,-372 234,-372 234,-384 234,-384 234,-390 228,-396 222,-396"/>
<text text-anchor="middle" x="188" y="-375.5" font-family="sans" font-size="10.00" fill="#000000">generate_index</text>
</g>
<!-- 7&#45;&gt;6 -->
<g id="edge12" class="edge">
<title>7&#45;&gt;6</title>
<path fill="none" stroke="#c0c0c0" stroke-width="2" d="M188,-359.8314C188,-352.131 188,-342.9743 188,-334.4166"/>
<polygon fill="#c0c0c0" stroke="#c0c0c0" stroke-width="2" points="191.5001,-334.4132 188,-324.4133 184.5001,-334.4133 191.5001,-334.4132"/>
</g>
<!-- 8 -->
<g id="node9" class="node">
<title>8</title>
<path fill="none" stroke="#c6d856" stroke-width="2" d="M214.5,-468C214.5,-468 161.5,-468 161.5,-468 155.5,-468 149.5,-462 149.5,-456 149.5,-456 149.5,-444 149.5,-444 149.5,-438 155.5,-432 161.5,-432 161.5,-432 214.5,-432 214.5,-432 220.5,-432 226.5,-438 226.5,-444 226.5,-444 226.5,-456 226.5,-456 226.5,-462 220.5,-468 214.5,-468"/>
<text text-anchor="middle" x="188" y="-447.5" font-family="sans" font-size="10.00" fill="#000000">create_fasta</text>
</g>
<!-- 8&#45;&gt;7 -->
<g id="edge14" class="edge">
<title>8&#45;&gt;7</title>
<path fill="none" stroke="#c0c0c0" stroke-width="2" d="M188,-431.8314C188,-424.131 188,-414.9743 188,-406.4166"/>
<polygon fill="#c0c0c0" stroke="#c0c0c0" stroke-width="2" points="191.5001,-406.4132 188,-396.4133 184.5001,-406.4133 191.5001,-406.4132"/>
</g>
<!-- 9 -->
<g id="node10" class="node">
<title>9</title>
<path fill="none" stroke="#9fd856" stroke-width="2" d="M299,-468C299,-468 257,-468 257,-468 251,-468 245,-462 245,-456 245,-456 245,-444 245,-444 245,-438 251,-432 257,-432 257,-432 299,-432 299,-432 305,-432 311,-438 311,-444 311,-444 311,-456 311,-456 311,-462 305,-468 299,-468"/>
<text text-anchor="middle" x="278" y="-447.5" font-family="sans" font-size="10.00" fill="#000000">create_gtf</text>
</g>
<!-- 9&#45;&gt;4 -->
<g id="edge7" class="edge">
<title>9&#45;&gt;4</title>
<path fill="none" stroke="#c0c0c0" stroke-width="2" d="M279.8141,-431.9843C284.7169,-383.2939 298.2601,-248.7961 304.1748,-190.0573"/>
<polygon fill="#c0c0c0" stroke="#c0c0c0" stroke-width="2" points="307.667,-190.3093 305.1866,-180.0089 300.7022,-189.6079 307.667,-190.3093"/>
</g>
<!-- 9&#45;&gt;7 -->
<g id="edge13" class="edge">
<title>9&#45;&gt;7</title>
<path fill="none" stroke="#c0c0c0" stroke-width="2" d="M255.2892,-431.8314C244.204,-422.9632 230.7046,-412.1637 218.7148,-402.5718"/>
<polygon fill="#c0c0c0" stroke="#c0c0c0" stroke-width="2" points="220.6987,-399.6768 210.7035,-396.1628 216.3258,-405.1429 220.6987,-399.6768"/>
</g>
<!-- 9&#45;&gt;13 -->
<g id="edge19" class="edge">
<title>9&#45;&gt;13</title>
<path fill="none" stroke="#c0c0c0" stroke-width="2" d="M276.1429,-431.9848C272.0014,-399.826 259.4054,-331.81 224,-288 204.2128,-263.5157 181.4995,-277.4712 163,-252 150.0446,-234.1623 145.2405,-209.4665 143.5666,-190.4557"/>
<polygon fill="#c0c0c0" stroke="#c0c0c0" stroke-width="2" points="147.0474,-190.043 142.9157,-180.287 140.0617,-190.4902 147.0474,-190.043"/>
</g>
<!-- 10 -->
<g id="node11" class="node">
<title>10</title>
<path fill="none" stroke="#567bd8" stroke-width="2" d="M112,-396C112,-396 82,-396 82,-396 76,-396 70,-390 70,-384 70,-384 70,-372 70,-372 70,-366 76,-360 82,-360 82,-360 112,-360 112,-360 118,-360 124,-366 124,-372 124,-372 124,-384 124,-384 124,-390 118,-396 112,-396"/>
<text text-anchor="middle" x="97" y="-375.5" font-family="sans" font-size="10.00" fill="#000000">trim</text>
</g>
<!-- 10&#45;&gt;6 -->
<g id="edge11" class="edge">
<title>10&#45;&gt;6</title>
<path fill="none" stroke="#c0c0c0" stroke-width="2" d="M119.9631,-359.8314C131.1715,-350.9632 144.8209,-340.1637 156.9439,-330.5718"/>
<polygon fill="#c0c0c0" stroke="#c0c0c0" stroke-width="2" points="159.3737,-333.1125 165.0442,-324.1628 155.0303,-327.6229 159.3737,-333.1125"/>
</g>
<!-- 11&#45;&gt;10 -->
<g id="edge15" class="edge">
<title>11&#45;&gt;10</title>
<path fill="none" stroke="#c0c0c0" stroke-width="2" d="M98.4953,-431.8314C98.2814,-424.131 98.0271,-414.9743 97.7894,-406.4166"/>
<polygon fill="#c0c0c0" stroke="#c0c0c0" stroke-width="2" points="101.2879,-406.3122 97.5115,-396.4133 94.2906,-406.5066 101.2879,-406.3122"/>
</g>
<!-- 12&#45;&gt;0 -->
<g id="edge2" class="edge">
<title>12&#45;&gt;0</title>
<path fill="none" stroke="#c0c0c0" stroke-width="2" d="M181.9209,-75.7751C217.1309,-62.9065 268.6103,-44.0917 303.1602,-31.4643"/>
<polygon fill="#c0c0c0" stroke="#c0c0c0" stroke-width="2" points="304.6739,-34.6376 312.8648,-27.9174 302.271,-28.0629 304.6739,-34.6376"/>
</g>
<!-- 13&#45;&gt;12 -->
<g id="edge17" class="edge">
<title>13&#45;&gt;12</title>
<path fill="none" stroke="#c0c0c0" stroke-width="2" d="M143,-143.8314C143,-136.131 143,-126.9743 143,-118.4166"/>
<polygon fill="#c0c0c0" stroke="#c0c0c0" stroke-width="2" points="146.5001,-118.4132 143,-108.4133 139.5001,-118.4133 146.5001,-118.4132"/>
</g>
</g>
</svg>
