<?xml version="1.0" encoding="UTF-8" standalone="no"?>
<!DOCTYPE svg PUBLIC "-//W3C//DTD SVG 1.1//EN"
 "http://www.w3.org/Graphics/SVG/1.1/DTD/svg11.dtd">
<!-- Generated by graphviz version 2.40.1 (0)
 -->
<!-- Title: snakemake_dag Pages: 1 -->
<svg width="566pt" height="548pt"
 viewBox="0.00 0.00 566.00 548.00" xmlns="http://www.w3.org/2000/svg" xmlns:xlink="http://www.w3.org/1999/xlink">
<g id="graph0" class="graph" transform="scale(1 1) rotate(0) translate(4 544)">
<title>snakemake_dag</title>
<polygon fill="#ffffff" stroke="transparent" points="-4,4 -4,-544 562,-544 562,4 -4,4"/>
<!-- 0 -->
<g id="node1" class="node">
<title>0</title>
<path fill="none" stroke="#56d873" stroke-width="2" d="M155,-540C155,-540 57,-540 57,-540 51,-540 45,-534 45,-528 45,-528 45,-516 45,-516 45,-510 51,-504 57,-504 57,-504 155,-504 155,-504 161,-504 167,-510 167,-516 167,-516 167,-528 167,-528 167,-534 161,-540 155,-540"/>
<text text-anchor="middle" x="106" y="-519.5" font-family="sans" font-size="10.00" fill="#000000">generate_py_barcode</text>
</g>
<!-- 2 -->
<g id="node3" class="node">
<title>2</title>
<path fill="none" stroke="#56d8a9" stroke-width="2" d="M508.5,-108C508.5,-108 455.5,-108 455.5,-108 449.5,-108 443.5,-102 443.5,-96 443.5,-96 443.5,-84 443.5,-84 443.5,-78 449.5,-72 455.5,-72 455.5,-72 508.5,-72 508.5,-72 514.5,-72 520.5,-78 520.5,-84 520.5,-84 520.5,-96 520.5,-96 520.5,-102 514.5,-108 508.5,-108"/>
<text text-anchor="middle" x="482" y="-87.5" font-family="sans" font-size="10.00" fill="#000000">merge_gene</text>
</g>
<!-- 0&#45;&gt;2 -->
<g id="edge4" class="edge">
<title>0&#45;&gt;2</title>
<path fill="none" stroke="#c0c0c0" stroke-width="2" d="M167.0516,-517.803C256.9976,-510.8163 420.0835,-494.8505 472,-468 521.1424,-442.5842 558,-433.3257 558,-378 558,-378 558,-378 558,-234 558,-191.8363 548.7179,-180.7226 528,-144 522.4053,-134.0834 514.852,-124.2864 507.4845,-115.8161"/>
<polygon fill="#c0c0c0" stroke="#c0c0c0" stroke-width="2" points="509.8496,-113.2131 500.5477,-108.141 504.6563,-117.9068 509.8496,-113.2131"/>
</g>
<!-- 3 -->
<g id="node4" class="node">
<title>3</title>
<path fill="none" stroke="#d8cb56" stroke-width="2" d="M506.5,-180C506.5,-180 457.5,-180 457.5,-180 451.5,-180 445.5,-174 445.5,-168 445.5,-168 445.5,-156 445.5,-156 445.5,-150 451.5,-144 457.5,-144 457.5,-144 506.5,-144 506.5,-144 512.5,-144 518.5,-150 518.5,-156 518.5,-156 518.5,-168 518.5,-168 518.5,-174 512.5,-180 506.5,-180"/>
<text text-anchor="middle" x="482" y="-159.5" font-family="sans" font-size="10.00" fill="#000000">count_gene</text>
</g>
<!-- 0&#45;&gt;3 -->
<g id="edge6" class="edge">
<title>0&#45;&gt;3</title>
<path fill="none" stroke="#c0c0c0" stroke-width="2" d="M167.0811,-515.7199C245.9125,-506.9059 378.1531,-489.5092 422,-468 475.0921,-441.9555 520,-437.1362 520,-378 520,-378 520,-378 520,-306 520,-264.3681 504.9672,-218.14 493.8119,-189.567"/>
<polygon fill="#c0c0c0" stroke="#c0c0c0" stroke-width="2" points="497.0368,-188.2055 490.0588,-180.2332 490.5422,-190.817 497.0368,-188.2055"/>
</g>
<!-- 10 -->
<g id="node11" class="node">
<title>10</title>
<path fill="none" stroke="#d88d56" stroke-width="2" d="M157.5,-468C157.5,-468 116.5,-468 116.5,-468 110.5,-468 104.5,-462 104.5,-456 104.5,-456 104.5,-444 104.5,-444 104.5,-438 110.5,-432 116.5,-432 116.5,-432 157.5,-432 157.5,-432 163.5,-432 169.5,-438 169.5,-444 169.5,-444 169.5,-456 169.5,-456 169.5,-462 163.5,-468 157.5,-468"/>
<text text-anchor="middle" x="137" y="-447.5" font-family="sans" font-size="10.00" fill="#000000">barcoding</text>
</g>
<!-- 0&#45;&gt;10 -->
<g id="edge15" class="edge">
<title>0&#45;&gt;10</title>
<path fill="none" stroke="#c0c0c0" stroke-width="2" d="M113.8226,-503.8314C117.2109,-495.9617 121.2541,-486.5712 125.0076,-477.8533"/>
<polygon fill="#c0c0c0" stroke="#c0c0c0" stroke-width="2" points="128.3321,-478.9822 129.0721,-468.4133 121.9027,-476.214 128.3321,-478.9822"/>
</g>
<!-- 11 -->
<g id="node12" class="node">
<title>11</title>
<path fill="none" stroke="#56d892" stroke-width="2" d="M239.5,-108C239.5,-108 186.5,-108 186.5,-108 180.5,-108 174.5,-102 174.5,-96 174.5,-96 174.5,-84 174.5,-84 174.5,-78 180.5,-72 186.5,-72 186.5,-72 239.5,-72 239.5,-72 245.5,-72 251.5,-78 251.5,-84 251.5,-84 251.5,-96 251.5,-96 251.5,-102 245.5,-108 239.5,-108"/>
<text text-anchor="middle" x="213" y="-87.5" font-family="sans" font-size="10.00" fill="#000000">merge_exon</text>
</g>
<!-- 0&#45;&gt;11 -->
<g id="edge16" class="edge">
<title>0&#45;&gt;11</title>
<path fill="none" stroke="#c0c0c0" stroke-width="2" d="M80.6104,-503.9792C49.2512,-479.3983 0,-432.1699 0,-378 0,-378 0,-378 0,-234 0,-154.9795 101.8568,-116.3867 164.6982,-100.0961"/>
<polygon fill="#c0c0c0" stroke="#c0c0c0" stroke-width="2" points="165.5712,-103.4857 174.4273,-97.6703 163.8776,-96.6936 165.5712,-103.4857"/>
</g>
<!-- 12 -->
<g id="node13" class="node">
<title>12</title>
<path fill="none" stroke="#d8ac56" stroke-width="2" d="M237.5,-180C237.5,-180 188.5,-180 188.5,-180 182.5,-180 176.5,-174 176.5,-168 176.5,-168 176.5,-156 176.5,-156 176.5,-150 182.5,-144 188.5,-144 188.5,-144 237.5,-144 237.5,-144 243.5,-144 249.5,-150 249.5,-156 249.5,-156 249.5,-168 249.5,-168 249.5,-174 243.5,-180 237.5,-180"/>
<text text-anchor="middle" x="213" y="-159.5" font-family="sans" font-size="10.00" fill="#000000">count_exon</text>
</g>
<!-- 0&#45;&gt;12 -->
<g id="edge18" class="edge">
<title>0&#45;&gt;12</title>
<path fill="none" stroke="#c0c0c0" stroke-width="2" d="M90.9086,-503.7475C70.8752,-477.6068 38,-427.2121 38,-378 38,-378 38,-378 38,-306 38,-265.1184 29.9572,-246.6593 57,-216 71.7246,-199.3063 126.0165,-182.9895 166.4371,-172.7386"/>
<polygon fill="#c0c0c0" stroke="#c0c0c0" stroke-width="2" points="167.5217,-176.0756 176.3821,-170.2666 165.8331,-169.2823 167.5217,-176.0756"/>
</g>
<!-- 15 -->
<g id="node16" class="node">
<title>15</title>
<path fill="none" stroke="#d85656" stroke-width="2" d="M132,-252C132,-252 78,-252 78,-252 72,-252 66,-246 66,-240 66,-240 66,-228 66,-228 66,-222 72,-216 78,-216 78,-216 132,-216 132,-216 138,-216 144,-222 144,-228 144,-228 144,-240 144,-240 144,-246 138,-252 132,-252"/>
<text text-anchor="middle" x="105" y="-231.5" font-family="sans" font-size="10.00" fill="#000000">bam_add_bc</text>
</g>
<!-- 0&#45;&gt;15 -->
<g id="edge25" class="edge">
<title>0&#45;&gt;15</title>
<path fill="none" stroke="#c0c0c0" stroke-width="2" d="M101.3066,-503.6463C98.8929,-493.2631 96.2092,-479.9943 95,-468 87.5393,-393.9969 95.8457,-306.2805 101.1963,-262.2295"/>
<polygon fill="#c0c0c0" stroke="#c0c0c0" stroke-width="2" points="104.6754,-262.6142 102.4491,-252.2559 97.73,-261.7417 104.6754,-262.6142"/>
</g>
<!-- 1 -->
<g id="node2" class="node">
<title>1</title>
<path fill="none" stroke="#56a9d8" stroke-width="2" d="M383,-36C383,-36 353,-36 353,-36 347,-36 341,-30 341,-24 341,-24 341,-12 341,-12 341,-6 347,0 353,0 353,0 383,0 383,0 389,0 395,-6 395,-12 395,-12 395,-24 395,-24 395,-30 389,-36 383,-36"/>
<text text-anchor="middle" x="368" y="-15.5" font-family="sans" font-size="10.00" fill="#000000">targets</text>
</g>
<!-- 2&#45;&gt;1 -->
<g id="edge2" class="edge">
<title>2&#45;&gt;1</title>
<path fill="none" stroke="#c0c0c0" stroke-width="2" d="M453.233,-71.8314C438.2065,-62.3409 419.6777,-50.6386 403.7383,-40.5716"/>
<polygon fill="#c0c0c0" stroke="#c0c0c0" stroke-width="2" points="405.512,-37.5522 395.1881,-35.1715 401.7741,-43.4707 405.512,-37.5522"/>
</g>
<!-- 3&#45;&gt;2 -->
<g id="edge5" class="edge">
<title>3&#45;&gt;2</title>
<path fill="none" stroke="#c0c0c0" stroke-width="2" d="M482,-143.8314C482,-136.131 482,-126.9743 482,-118.4166"/>
<polygon fill="#c0c0c0" stroke="#c0c0c0" stroke-width="2" points="485.5001,-118.4132 482,-108.4133 478.5001,-118.4133 485.5001,-118.4132"/>
</g>
<!-- 4 -->
<g id="node5" class="node">
<title>4</title>
<path fill="none" stroke="#d87556" stroke-width="2" d="M251.5,-252C251.5,-252 174.5,-252 174.5,-252 168.5,-252 162.5,-246 162.5,-240 162.5,-240 162.5,-228 162.5,-228 162.5,-222 168.5,-216 174.5,-216 174.5,-216 251.5,-216 251.5,-216 257.5,-216 263.5,-222 263.5,-228 263.5,-228 263.5,-240 263.5,-240 263.5,-246 257.5,-252 251.5,-252"/>
<text text-anchor="middle" x="213" y="-231.5" font-family="sans" font-size="10.00" fill="#000000">bam_filter_dedup</text>
</g>
<!-- 4&#45;&gt;3 -->
<g id="edge7" class="edge">
<title>4&#45;&gt;3</title>
<path fill="none" stroke="#c0c0c0" stroke-width="2" d="M263.5968,-220.4574C313.0429,-207.2227 387.6781,-187.246 435.6251,-174.4126"/>
<polygon fill="#c0c0c0" stroke="#c0c0c0" stroke-width="2" points="436.6778,-177.7541 445.4327,-171.7875 434.8678,-170.9922 436.6778,-177.7541"/>
</g>
<!-- 4&#45;&gt;12 -->
<g id="edge19" class="edge">
<title>4&#45;&gt;12</title>
<path fill="none" stroke="#c0c0c0" stroke-width="2" d="M213,-215.8314C213,-208.131 213,-198.9743 213,-190.4166"/>
<polygon fill="#c0c0c0" stroke="#c0c0c0" stroke-width="2" points="216.5001,-190.4132 213,-180.4133 209.5001,-190.4133 216.5001,-190.4132"/>
</g>
<!-- 5 -->
<g id="node6" class="node">
<title>5</title>
<path fill="none" stroke="#56c9d8" stroke-width="2" d="M189,-324C189,-324 159,-324 159,-324 153,-324 147,-318 147,-312 147,-312 147,-300 147,-300 147,-294 153,-288 159,-288 159,-288 189,-288 189,-288 195,-288 201,-294 201,-300 201,-300 201,-312 201,-312 201,-318 195,-324 189,-324"/>
<text text-anchor="middle" x="174" y="-303.5" font-family="sans" font-size="10.00" fill="#000000">star</text>
</g>
<!-- 5&#45;&gt;4 -->
<g id="edge9" class="edge">
<title>5&#45;&gt;4</title>
<path fill="none" stroke="#c0c0c0" stroke-width="2" d="M183.8413,-287.8314C188.1957,-279.7925 193.4098,-270.1666 198.2169,-261.2918"/>
<polygon fill="#c0c0c0" stroke="#c0c0c0" stroke-width="2" points="201.3408,-262.8732 203.0261,-252.4133 195.1857,-259.5392 201.3408,-262.8732"/>
</g>
<!-- 5&#45;&gt;15 -->
<g id="edge26" class="edge">
<title>5&#45;&gt;15</title>
<path fill="none" stroke="#c0c0c0" stroke-width="2" d="M156.5884,-287.8314C148.479,-279.3694 138.6844,-269.1489 129.818,-259.8971"/>
<polygon fill="#c0c0c0" stroke="#c0c0c0" stroke-width="2" points="132.0921,-257.2115 122.646,-252.4133 127.0382,-262.0549 132.0921,-257.2115"/>
</g>
<!-- 6 -->
<g id="node7" class="node">
<title>6</title>
<path fill="none" stroke="#59d856" stroke-width="2" d="M258,-396C258,-396 190,-396 190,-396 184,-396 178,-390 178,-384 178,-384 178,-372 178,-372 178,-366 184,-360 190,-360 190,-360 258,-360 258,-360 264,-360 270,-366 270,-372 270,-372 270,-384 270,-384 270,-390 264,-396 258,-396"/>
<text text-anchor="middle" x="224" y="-375.5" font-family="sans" font-size="10.00" fill="#000000">generate_index</text>
</g>
<!-- 6&#45;&gt;5 -->
<g id="edge10" class="edge">
<title>6&#45;&gt;5</title>
<path fill="none" stroke="#c0c0c0" stroke-width="2" d="M211.3829,-359.8314C205.6828,-351.6232 198.8337,-341.7606 192.5641,-332.7323"/>
<polygon fill="#c0c0c0" stroke="#c0c0c0" stroke-width="2" points="195.3658,-330.6306 186.787,-324.4133 189.6162,-334.6234 195.3658,-330.6306"/>
</g>
<!-- 7 -->
<g id="node8" class="node">
<title>7</title>
<path fill="none" stroke="#c6d856" stroke-width="2" d="M252.5,-468C252.5,-468 199.5,-468 199.5,-468 193.5,-468 187.5,-462 187.5,-456 187.5,-456 187.5,-444 187.5,-444 187.5,-438 193.5,-432 199.5,-432 199.5,-432 252.5,-432 252.5,-432 258.5,-432 264.5,-438 264.5,-444 264.5,-444 264.5,-456 264.5,-456 264.5,-462 258.5,-468 252.5,-468"/>
<text text-anchor="middle" x="226" y="-447.5" font-family="sans" font-size="10.00" fill="#000000">create_fasta</text>
</g>
<!-- 7&#45;&gt;6 -->
<g id="edge13" class="edge">
<title>7&#45;&gt;6</title>
<path fill="none" stroke="#c0c0c0" stroke-width="2" d="M225.4953,-431.8314C225.2814,-424.131 225.0271,-414.9743 224.7894,-406.4166"/>
<polygon fill="#c0c0c0" stroke="#c0c0c0" stroke-width="2" points="228.2879,-406.3122 224.5115,-396.4133 221.2906,-406.5066 228.2879,-406.3122"/>
</g>
<!-- 8 -->
<g id="node9" class="node">
<title>8</title>
<path fill="none" stroke="#afd856" stroke-width="2" d="M401,-468C401,-468 359,-468 359,-468 353,-468 347,-462 347,-456 347,-456 347,-444 347,-444 347,-438 353,-432 359,-432 359,-432 401,-432 401,-432 407,-432 413,-438 413,-444 413,-444 413,-456 413,-456 413,-462 407,-468 401,-468"/>
<text text-anchor="middle" x="380" y="-447.5" font-family="sans" font-size="10.00" fill="#000000">create_gtf</text>
</g>
<!-- 8&#45;&gt;3 -->
<g id="edge8" class="edge">
<title>8&#45;&gt;3</title>
<path fill="none" stroke="#c0c0c0" stroke-width="2" d="M400.2232,-431.7027C409.8937,-421.9586 420.8853,-409.2644 428,-396 464.489,-327.9715 476.4436,-235.9397 480.2658,-190.2128"/>
<polygon fill="#c0c0c0" stroke="#c0c0c0" stroke-width="2" points="483.7629,-190.3823 481.0366,-180.1443 476.7834,-189.8479 483.7629,-190.3823"/>
</g>
<!-- 8&#45;&gt;6 -->
<g id="edge12" class="edge">
<title>8&#45;&gt;6</title>
<path fill="none" stroke="#c0c0c0" stroke-width="2" d="M346.9164,-434.7307C325.2821,-424.7456 296.6546,-411.5329 272.4704,-400.371"/>
<polygon fill="#c0c0c0" stroke="#c0c0c0" stroke-width="2" points="273.6475,-397.0595 263.1012,-396.0467 270.714,-403.4152 273.6475,-397.0595"/>
</g>
<!-- 8&#45;&gt;12 -->
<g id="edge20" class="edge">
<title>8&#45;&gt;12</title>
<path fill="none" stroke="#c0c0c0" stroke-width="2" d="M374.4353,-431.9876C361.1962,-390.9445 324.9256,-288.4347 272,-216 264.32,-205.489 254.3525,-195.4346 244.8028,-186.9119"/>
<polygon fill="#c0c0c0" stroke="#c0c0c0" stroke-width="2" points="246.7994,-184.0122 236.9388,-180.1367 242.2304,-189.3155 246.7994,-184.0122"/>
</g>
<!-- 14 -->
<g id="node15" class="node">
<title>14</title>
<path fill="none" stroke="#5673d8" stroke-width="2" d="M385.5,-180C385.5,-180 350.5,-180 350.5,-180 344.5,-180 338.5,-174 338.5,-168 338.5,-168 338.5,-156 338.5,-156 338.5,-150 344.5,-144 350.5,-144 350.5,-144 385.5,-144 385.5,-144 391.5,-144 397.5,-150 397.5,-156 397.5,-156 397.5,-168 397.5,-168 397.5,-174 391.5,-180 385.5,-180"/>
<text text-anchor="middle" x="368" y="-159.5" font-family="sans" font-size="10.00" fill="#000000">velocyto</text>
</g>
<!-- 8&#45;&gt;14 -->
<g id="edge23" class="edge">
<title>8&#45;&gt;14</title>
<path fill="none" stroke="#c0c0c0" stroke-width="2" d="M390.3737,-431.9158C412.066,-391.5747 457.6108,-291.8159 425,-216 420.2509,-204.9589 412.0115,-195.1176 403.2494,-186.9593"/>
<polygon fill="#c0c0c0" stroke="#c0c0c0" stroke-width="2" points="405.339,-184.1388 395.4894,-180.2354 400.755,-189.4291 405.339,-184.1388"/>
</g>
<!-- 9 -->
<g id="node10" class="node">
<title>9</title>
<path fill="none" stroke="#5692d8" stroke-width="2" d="M148,-396C148,-396 118,-396 118,-396 112,-396 106,-390 106,-384 106,-384 106,-372 106,-372 106,-366 112,-360 118,-360 118,-360 148,-360 148,-360 154,-360 160,-366 160,-372 160,-372 160,-384 160,-384 160,-390 154,-396 148,-396"/>
<text text-anchor="middle" x="133" y="-375.5" font-family="sans" font-size="10.00" fill="#000000">trim</text>
</g>
<!-- 9&#45;&gt;5 -->
<g id="edge11" class="edge">
<title>9&#45;&gt;5</title>
<path fill="none" stroke="#c0c0c0" stroke-width="2" d="M143.346,-359.8314C147.9237,-351.7925 153.4052,-342.1666 158.4588,-333.2918"/>
<polygon fill="#c0c0c0" stroke="#c0c0c0" stroke-width="2" points="161.6077,-334.8351 163.5147,-324.4133 155.5248,-331.3712 161.6077,-334.8351"/>
</g>
<!-- 10&#45;&gt;9 -->
<g id="edge14" class="edge">
<title>10&#45;&gt;9</title>
<path fill="none" stroke="#c0c0c0" stroke-width="2" d="M135.9906,-431.8314C135.5628,-424.131 135.0541,-414.9743 134.5787,-406.4166"/>
<polygon fill="#c0c0c0" stroke="#c0c0c0" stroke-width="2" points="138.0724,-406.2037 134.023,-396.4133 131.0831,-406.592 138.0724,-406.2037"/>
</g>
<!-- 11&#45;&gt;1 -->
<g id="edge1" class="edge">
<title>11&#45;&gt;1</title>
<path fill="none" stroke="#c0c0c0" stroke-width="2" d="M251.7132,-72.0171C276.2528,-60.6181 307.7827,-45.9719 331.819,-34.8067"/>
<polygon fill="#c0c0c0" stroke="#c0c0c0" stroke-width="2" points="333.3661,-37.9472 340.9609,-30.5601 330.4171,-31.5987 333.3661,-37.9472"/>
</g>
<!-- 12&#45;&gt;11 -->
<g id="edge17" class="edge">
<title>12&#45;&gt;11</title>
<path fill="none" stroke="#c0c0c0" stroke-width="2" d="M213,-143.8314C213,-136.131 213,-126.9743 213,-118.4166"/>
<polygon fill="#c0c0c0" stroke="#c0c0c0" stroke-width="2" points="216.5001,-118.4132 213,-108.4133 209.5001,-118.4133 216.5001,-118.4132"/>
</g>
<!-- 13 -->
<g id="node14" class="node">
<title>13</title>
<path fill="none" stroke="#56d8c9" stroke-width="2" d="M403.5,-108C403.5,-108 332.5,-108 332.5,-108 326.5,-108 320.5,-102 320.5,-96 320.5,-96 320.5,-84 320.5,-84 320.5,-78 326.5,-72 332.5,-72 332.5,-72 403.5,-72 403.5,-72 409.5,-72 415.5,-78 415.5,-84 415.5,-84 415.5,-96 415.5,-96 415.5,-102 409.5,-108 403.5,-108"/>
<text text-anchor="middle" x="368" y="-87.5" font-family="sans" font-size="10.00" fill="#000000">merge_velocyto</text>
</g>
<!-- 13&#45;&gt;1 -->
<g id="edge3" class="edge">
<title>13&#45;&gt;1</title>
<path fill="none" stroke="#c0c0c0" stroke-width="2" d="M368,-71.8314C368,-64.131 368,-54.9743 368,-46.4166"/>
<polygon fill="#c0c0c0" stroke="#c0c0c0" stroke-width="2" points="371.5001,-46.4132 368,-36.4133 364.5001,-46.4133 371.5001,-46.4132"/>
</g>
<!-- 14&#45;&gt;13 -->
<g id="edge21" class="edge">
<title>14&#45;&gt;13</title>
<path fill="none" stroke="#c0c0c0" stroke-width="2" d="M368,-143.8314C368,-136.131 368,-126.9743 368,-118.4166"/>
<polygon fill="#c0c0c0" stroke="#c0c0c0" stroke-width="2" points="371.5001,-118.4132 368,-108.4133 364.5001,-118.4133 371.5001,-118.4132"/>
</g>
<!-- 15&#45;&gt;14 -->
<g id="edge24" class="edge">
<title>15&#45;&gt;14</title>
<path fill="none" stroke="#c0c0c0" stroke-width="2" d="M144.1679,-218.9014C147.1433,-217.8806 150.1113,-216.9012 153,-216 213.5421,-197.1114 285.2286,-180.1648 328.6259,-170.4868"/>
<polygon fill="#c0c0c0" stroke="#c0c0c0" stroke-width="2" points="329.49,-173.8803 338.4975,-168.3021 327.9774,-167.0457 329.49,-173.8803"/>
</g>
<!-- 16 -->
<g id="node17" class="node">
<title>16</title>
<path fill="none" stroke="#8fd856" stroke-width="2" d="M404,-252C404,-252 332,-252 332,-252 326,-252 320,-246 320,-240 320,-240 320,-228 320,-228 320,-222 326,-216 332,-216 332,-216 404,-216 404,-216 410,-216 416,-222 416,-228 416,-228 416,-240 416,-240 416,-246 410,-252 404,-252"/>
<text text-anchor="middle" x="368" y="-231.5" font-family="sans" font-size="10.00" fill="#000000">create_rmsk_gtf</text>
</g>
<!-- 16&#45;&gt;14 -->
<g id="edge22" class="edge">
<title>16&#45;&gt;14</title>
<path fill="none" stroke="#c0c0c0" stroke-width="2" d="M368,-215.8314C368,-208.131 368,-198.9743 368,-190.4166"/>
<polygon fill="#c0c0c0" stroke="#c0c0c0" stroke-width="2" points="371.5001,-190.4132 368,-180.4133 364.5001,-190.4133 371.5001,-190.4132"/>
</g>
</g>
</svg>
